<svg xmlns="http://www.w3.org/2000/svg" width="335.06" height="85.97" viewBox="0 0 335.065 85.968002"><g fill="#fff"><path d="M308.98 18.76h-12v49.8h12v-18.6h13.57V38h-13.57v-7.23h26.1v-12h-26.1zm-30.33-.1v21.9l-25.86-21.8h-12.1V68.5h12V34.4l25.85 21.9v12.18h12v-49.8h-12zM158.6 56.56h-28.78l21.93-25.87v-12H114v12h22l-21.8 25.8h-.02v12h56.43V18.7h-12v37.8zm63.65-.05h-3.56l-20.6-20.6 17.2-17.2h-17l-8.8 8.8v-8.7h-12v49.8h12V44.4l24.15 24.14h20.47V18.62h-12v37.9zM0 0v75.55h.04v10.42h88.38V75.55h.1V0H0zm12 12h64.52v61.97H12V12z"/><path d="M25.7 50.78h-.15v12H63.1v-12H44.4l18.54-15.6h.18V23.2H25.4v11.98h19.5l-19.2 15.6z"/></g></svg>